<mxfile host="Electron" modified="2025-03-19T13:25:44.347Z" agent="Mozilla/5.0 (Windows NT 10.0; Win64; x64) AppleWebKit/537.36 (KHTML, like Gecko) draw.io/22.0.3 Chrome/114.0.5735.289 Electron/25.8.4 Safari/537.36" etag="8u6LLSYjxpXJjd81Vp-N" version="22.0.3" type="device">
  <diagram name="Página-1" id="PV0C417ytZdiI2iAubdF">
    <mxGraphModel dx="2379" dy="2709" grid="1" gridSize="10" guides="1" tooltips="1" connect="1" arrows="1" fold="1" page="1" pageScale="1" pageWidth="827" pageHeight="1169" math="0" shadow="0">
      <root>
        <mxCell id="0" />
        <mxCell id="1" parent="0" />
        <mxCell id="tN9eeVgs6B-u2x_idrSd-1" value="&lt;font style=&quot;font-size: 24px;&quot;&gt;&lt;b&gt;RPG&lt;br&gt;Forgotten Sky&lt;/b&gt;&lt;/font&gt;" style="text;html=1;align=center;verticalAlign=middle;resizable=0;points=[];autosize=1;strokeColor=none;fillColor=none;" parent="1" vertex="1">
          <mxGeometry x="70" y="40" width="180" height="70" as="geometry" />
        </mxCell>
        <mxCell id="tN9eeVgs6B-u2x_idrSd-2" value="&lt;font style=&quot;font-size: 16px;&quot;&gt;&lt;b&gt;Jogador&lt;/b&gt;&lt;/font&gt;" style="rounded=0;whiteSpace=wrap;html=1;" parent="1" vertex="1">
          <mxGeometry x="354" y="190" width="120" height="60" as="geometry" />
        </mxCell>
        <mxCell id="tN9eeVgs6B-u2x_idrSd-3" value="&lt;span style=&quot;font-size: 16px;&quot;&gt;&lt;b&gt;NPCs&lt;/b&gt;&lt;/span&gt;" style="rounded=0;whiteSpace=wrap;html=1;" parent="1" vertex="1">
          <mxGeometry x="260" y="800" width="120" height="60" as="geometry" />
        </mxCell>
        <mxCell id="tN9eeVgs6B-u2x_idrSd-6" value="&lt;font style=&quot;font-size: 16px;&quot;&gt;Nome&lt;/font&gt;" style="ellipse;whiteSpace=wrap;html=1;" parent="1" vertex="1">
          <mxGeometry x="130" y="240" width="120" height="80" as="geometry" />
        </mxCell>
        <mxCell id="tN9eeVgs6B-u2x_idrSd-7" value="&lt;font style=&quot;font-size: 16px;&quot;&gt;Idade&lt;/font&gt;" style="ellipse;whiteSpace=wrap;html=1;" parent="1" vertex="1">
          <mxGeometry x="220" y="380" width="120" height="80" as="geometry" />
        </mxCell>
        <mxCell id="tN9eeVgs6B-u2x_idrSd-8" value="&lt;font style=&quot;font-size: 16px;&quot;&gt;Passado&lt;/font&gt;" style="ellipse;whiteSpace=wrap;html=1;" parent="1" vertex="1">
          <mxGeometry x="430" y="380" width="120" height="80" as="geometry" />
        </mxCell>
        <mxCell id="tN9eeVgs6B-u2x_idrSd-9" value="&lt;font style=&quot;font-size: 16px;&quot;&gt;Atributos&lt;/font&gt;" style="ellipse;whiteSpace=wrap;html=1;" parent="1" vertex="1">
          <mxGeometry x="40" y="390" width="120" height="80" as="geometry" />
        </mxCell>
        <mxCell id="tN9eeVgs6B-u2x_idrSd-10" value="&lt;font style=&quot;font-size: 16px;&quot;&gt;Força&lt;/font&gt;" style="ellipse;whiteSpace=wrap;html=1;" parent="1" vertex="1">
          <mxGeometry x="-200" y="190" width="120" height="80" as="geometry" />
        </mxCell>
        <mxCell id="tN9eeVgs6B-u2x_idrSd-11" value="&lt;font style=&quot;font-size: 16px;&quot;&gt;Destreza&lt;/font&gt;" style="ellipse;whiteSpace=wrap;html=1;" parent="1" vertex="1">
          <mxGeometry x="-200" y="390" width="120" height="80" as="geometry" />
        </mxCell>
        <mxCell id="tN9eeVgs6B-u2x_idrSd-12" value="&lt;font style=&quot;font-size: 16px;&quot;&gt;Intelecto&lt;/font&gt;" style="ellipse;whiteSpace=wrap;html=1;" parent="1" vertex="1">
          <mxGeometry x="-200" y="690" width="120" height="80" as="geometry" />
        </mxCell>
        <mxCell id="tN9eeVgs6B-u2x_idrSd-13" value="&lt;font style=&quot;font-size: 16px;&quot;&gt;Constituição&lt;/font&gt;" style="ellipse;whiteSpace=wrap;html=1;" parent="1" vertex="1">
          <mxGeometry x="-200" y="290" width="120" height="80" as="geometry" />
        </mxCell>
        <mxCell id="tN9eeVgs6B-u2x_idrSd-14" value="&lt;font style=&quot;font-size: 16px;&quot;&gt;Sabedoria&lt;/font&gt;" style="ellipse;whiteSpace=wrap;html=1;" parent="1" vertex="1">
          <mxGeometry x="-200" y="585" width="120" height="80" as="geometry" />
        </mxCell>
        <mxCell id="tN9eeVgs6B-u2x_idrSd-15" value="&lt;font style=&quot;font-size: 16px;&quot;&gt;Carisma&lt;/font&gt;" style="ellipse;whiteSpace=wrap;html=1;" parent="1" vertex="1">
          <mxGeometry x="-200" y="490" width="120" height="80" as="geometry" />
        </mxCell>
        <mxCell id="tN9eeVgs6B-u2x_idrSd-16" value="&lt;font style=&quot;font-size: 16px;&quot;&gt;Níveis&lt;/font&gt;" style="ellipse;whiteSpace=wrap;html=1;" parent="1" vertex="1">
          <mxGeometry x="-410" y="430" width="120" height="80" as="geometry" />
        </mxCell>
        <mxCell id="tN9eeVgs6B-u2x_idrSd-17" value="&lt;span style=&quot;font-size: 16px;&quot;&gt;Chance Acerto&lt;/span&gt;" style="ellipse;whiteSpace=wrap;html=1;dashed=1;dashPattern=8 8;" parent="1" vertex="1">
          <mxGeometry x="-580" y="430" width="120" height="80" as="geometry" />
        </mxCell>
        <mxCell id="tN9eeVgs6B-u2x_idrSd-18" value="&lt;font style=&quot;font-size: 16px;&quot;&gt;ID (PK)&lt;/font&gt;" style="ellipse;whiteSpace=wrap;html=1;" parent="1" vertex="1">
          <mxGeometry x="200" y="140" width="120" height="80" as="geometry" />
        </mxCell>
        <mxCell id="tN9eeVgs6B-u2x_idrSd-38" value="&lt;font style=&quot;font-size: 16px;&quot;&gt;Nome&lt;/font&gt;" style="ellipse;whiteSpace=wrap;html=1;" parent="1" vertex="1">
          <mxGeometry x="80" y="900" width="120" height="80" as="geometry" />
        </mxCell>
        <mxCell id="tN9eeVgs6B-u2x_idrSd-39" value="&lt;font style=&quot;font-size: 16px;&quot;&gt;Idade&lt;/font&gt;" style="ellipse;whiteSpace=wrap;html=1;" parent="1" vertex="1">
          <mxGeometry x="150" y="1020" width="120" height="80" as="geometry" />
        </mxCell>
        <mxCell id="tN9eeVgs6B-u2x_idrSd-40" value="&lt;font style=&quot;font-size: 16px;&quot;&gt;Passado&lt;/font&gt;" style="ellipse;whiteSpace=wrap;html=1;" parent="1" vertex="1">
          <mxGeometry x="304" y="1030" width="120" height="80" as="geometry" />
        </mxCell>
        <mxCell id="tN9eeVgs6B-u2x_idrSd-41" value="&lt;font style=&quot;font-size: 16px;&quot;&gt;Atributos&lt;/font&gt;" style="ellipse;whiteSpace=wrap;html=1;" parent="1" vertex="1">
          <mxGeometry x="424" y="960" width="120" height="80" as="geometry" />
        </mxCell>
        <mxCell id="tN9eeVgs6B-u2x_idrSd-42" value="&lt;font style=&quot;font-size: 16px;&quot;&gt;ID (PK)&lt;/font&gt;" style="ellipse;whiteSpace=wrap;html=1;" parent="1" vertex="1">
          <mxGeometry x="80" y="790" width="120" height="80" as="geometry" />
        </mxCell>
        <mxCell id="tN9eeVgs6B-u2x_idrSd-44" value="&lt;span style=&quot;font-size: 16px;&quot;&gt;Diálogos&lt;/span&gt;" style="ellipse;whiteSpace=wrap;html=1;" parent="1" vertex="1">
          <mxGeometry x="460" y="490" width="120" height="80" as="geometry" />
        </mxCell>
        <mxCell id="tN9eeVgs6B-u2x_idrSd-45" value="&lt;font style=&quot;font-size: 16px;&quot;&gt;Missões&lt;/font&gt;" style="ellipse;whiteSpace=wrap;html=1;" parent="1" vertex="1">
          <mxGeometry x="430" y="585" width="120" height="80" as="geometry" />
        </mxCell>
        <mxCell id="tN9eeVgs6B-u2x_idrSd-46" value="&lt;span style=&quot;font-size: 16px;&quot;&gt;Pontos de Experiência&lt;/span&gt;" style="ellipse;whiteSpace=wrap;html=1;dashed=1;dashPattern=8 8;" parent="1" vertex="1">
          <mxGeometry x="600" y="585" width="120" height="80" as="geometry" />
        </mxCell>
        <mxCell id="tN9eeVgs6B-u2x_idrSd-62" value="&lt;span style=&quot;font-size: 16px;&quot;&gt;&lt;b&gt;Adversários&lt;/b&gt;&lt;/span&gt;" style="rounded=0;whiteSpace=wrap;html=1;" parent="1" vertex="1">
          <mxGeometry x="1241" y="330" width="120" height="60" as="geometry" />
        </mxCell>
        <mxCell id="tN9eeVgs6B-u2x_idrSd-63" value="&lt;font style=&quot;font-size: 16px;&quot;&gt;Nome&lt;/font&gt;" style="ellipse;whiteSpace=wrap;html=1;" parent="1" vertex="1">
          <mxGeometry x="990" y="400" width="120" height="80" as="geometry" />
        </mxCell>
        <mxCell id="tN9eeVgs6B-u2x_idrSd-64" value="&lt;font style=&quot;font-size: 16px;&quot;&gt;Idade&lt;/font&gt;" style="ellipse;whiteSpace=wrap;html=1;" parent="1" vertex="1">
          <mxGeometry x="1150" y="505" width="120" height="80" as="geometry" />
        </mxCell>
        <mxCell id="tN9eeVgs6B-u2x_idrSd-65" value="&lt;font style=&quot;font-size: 16px;&quot;&gt;Passado&lt;/font&gt;" style="ellipse;whiteSpace=wrap;html=1;" parent="1" vertex="1">
          <mxGeometry x="1330" y="530" width="120" height="80" as="geometry" />
        </mxCell>
        <mxCell id="tN9eeVgs6B-u2x_idrSd-66" value="&lt;font style=&quot;font-size: 16px;&quot;&gt;Atributos&lt;/font&gt;" style="ellipse;whiteSpace=wrap;html=1;" parent="1" vertex="1">
          <mxGeometry x="1430" y="400" width="120" height="80" as="geometry" />
        </mxCell>
        <mxCell id="tN9eeVgs6B-u2x_idrSd-67" value="&lt;font style=&quot;font-size: 16px;&quot;&gt;ID (PK)&lt;/font&gt;" style="ellipse;whiteSpace=wrap;html=1;" parent="1" vertex="1">
          <mxGeometry x="1020" y="290" width="120" height="80" as="geometry" />
        </mxCell>
        <mxCell id="tN9eeVgs6B-u2x_idrSd-68" value="&lt;span style=&quot;font-size: 16px;&quot;&gt;Diálogos&lt;/span&gt;" style="ellipse;whiteSpace=wrap;html=1;" parent="1" vertex="1">
          <mxGeometry x="1430" y="140" width="120" height="80" as="geometry" />
        </mxCell>
        <mxCell id="tN9eeVgs6B-u2x_idrSd-70" value="&lt;font style=&quot;font-size: 16px;&quot;&gt;Missões&lt;/font&gt;" style="ellipse;whiteSpace=wrap;html=1;" parent="1" vertex="1">
          <mxGeometry x="1450" y="250" width="120" height="80" as="geometry" />
        </mxCell>
        <mxCell id="tN9eeVgs6B-u2x_idrSd-71" value="&lt;span style=&quot;font-size: 16px;&quot;&gt;Pontos de Experiência&lt;/span&gt;" style="ellipse;whiteSpace=wrap;html=1;dashed=1;dashPattern=8 8;" parent="1" vertex="1">
          <mxGeometry x="1620" y="260" width="120" height="80" as="geometry" />
        </mxCell>
        <mxCell id="tN9eeVgs6B-u2x_idrSd-72" value="&lt;span style=&quot;font-size: 16px;&quot;&gt;Combate&lt;/span&gt;" style="ellipse;whiteSpace=wrap;html=1;" parent="1" vertex="1">
          <mxGeometry x="1078" y="10" width="120" height="80" as="geometry" />
        </mxCell>
        <mxCell id="tN9eeVgs6B-u2x_idrSd-73" value="&lt;span style=&quot;font-size: 16px;&quot;&gt;Combos e&lt;br&gt;Padrões&lt;br&gt;&lt;/span&gt;" style="ellipse;whiteSpace=wrap;html=1;" parent="1" vertex="1">
          <mxGeometry x="1121" y="110" width="120" height="80" as="geometry" />
        </mxCell>
        <mxCell id="tN9eeVgs6B-u2x_idrSd-75" value="&lt;span style=&quot;font-size: 16px;&quot;&gt;Danos&lt;br&gt;&lt;/span&gt;" style="ellipse;whiteSpace=wrap;html=1;" parent="1" vertex="1">
          <mxGeometry x="990" y="-80" width="120" height="80" as="geometry" />
        </mxCell>
        <mxCell id="tN9eeVgs6B-u2x_idrSd-78" value="&lt;font style=&quot;font-size: 16px;&quot;&gt;Controles&lt;/font&gt;" style="ellipse;whiteSpace=wrap;html=1;" parent="1" vertex="1">
          <mxGeometry x="380" y="60" width="120" height="80" as="geometry" />
        </mxCell>
        <mxCell id="KgcUx6kxorHHYvOVh6-6-1" value="&lt;font style=&quot;font-size: 16px;&quot;&gt;Interage&lt;/font&gt;" style="rhombus;whiteSpace=wrap;html=1;strokeWidth=2;" vertex="1" parent="1">
          <mxGeometry x="304" y="490" width="120" height="120" as="geometry" />
        </mxCell>
        <mxCell id="KgcUx6kxorHHYvOVh6-6-2" value="&lt;font style=&quot;font-size: 16px;&quot;&gt;Enfrenta&lt;/font&gt;" style="rhombus;whiteSpace=wrap;html=1;strokeWidth=2;" vertex="1" parent="1">
          <mxGeometry x="840" y="40" width="120" height="120" as="geometry" />
        </mxCell>
        <mxCell id="KgcUx6kxorHHYvOVh6-6-5" value="" style="endArrow=classic;html=1;rounded=0;strokeWidth=1;" edge="1" parent="1" source="tN9eeVgs6B-u2x_idrSd-2" target="tN9eeVgs6B-u2x_idrSd-18">
          <mxGeometry width="50" height="50" relative="1" as="geometry">
            <mxPoint x="330" y="670" as="sourcePoint" />
            <mxPoint x="590" y="610" as="targetPoint" />
          </mxGeometry>
        </mxCell>
        <mxCell id="KgcUx6kxorHHYvOVh6-6-6" value="" style="endArrow=none;html=1;rounded=0;strokeWidth=2;" edge="1" parent="1" source="KgcUx6kxorHHYvOVh6-6-1" target="tN9eeVgs6B-u2x_idrSd-2">
          <mxGeometry width="50" height="50" relative="1" as="geometry">
            <mxPoint x="700" y="630" as="sourcePoint" />
            <mxPoint x="750" y="580" as="targetPoint" />
          </mxGeometry>
        </mxCell>
        <mxCell id="KgcUx6kxorHHYvOVh6-6-33" value="&lt;font style=&quot;font-size: 20px;&quot;&gt;1&lt;/font&gt;" style="edgeLabel;html=1;align=left;verticalAlign=middle;resizable=0;points=[];" vertex="1" connectable="0" parent="KgcUx6kxorHHYvOVh6-6-6">
          <mxGeometry x="-0.4902" y="-9" relative="1" as="geometry">
            <mxPoint as="offset" />
          </mxGeometry>
        </mxCell>
        <mxCell id="KgcUx6kxorHHYvOVh6-6-7" value="" style="endArrow=none;html=1;rounded=0;strokeWidth=2;" edge="1" parent="1" source="KgcUx6kxorHHYvOVh6-6-1" target="tN9eeVgs6B-u2x_idrSd-3">
          <mxGeometry width="50" height="50" relative="1" as="geometry">
            <mxPoint x="53" y="523" as="sourcePoint" />
            <mxPoint x="386" y="260" as="targetPoint" />
          </mxGeometry>
        </mxCell>
        <mxCell id="KgcUx6kxorHHYvOVh6-6-34" value="&lt;font style=&quot;font-size: 20px;&quot;&gt;M&lt;/font&gt;" style="edgeLabel;html=1;align=left;verticalAlign=middle;resizable=0;points=[];" vertex="1" connectable="0" parent="KgcUx6kxorHHYvOVh6-6-7">
          <mxGeometry x="0.0183" y="8" relative="1" as="geometry">
            <mxPoint as="offset" />
          </mxGeometry>
        </mxCell>
        <mxCell id="KgcUx6kxorHHYvOVh6-6-8" value="" style="endArrow=classic;html=1;rounded=0;strokeWidth=1;" edge="1" parent="1" source="tN9eeVgs6B-u2x_idrSd-2" target="tN9eeVgs6B-u2x_idrSd-6">
          <mxGeometry width="50" height="50" relative="1" as="geometry">
            <mxPoint x="364" y="214" as="sourcePoint" />
            <mxPoint x="326" y="205" as="targetPoint" />
          </mxGeometry>
        </mxCell>
        <mxCell id="KgcUx6kxorHHYvOVh6-6-9" value="" style="endArrow=classic;html=1;rounded=0;strokeWidth=1;" edge="1" parent="1" source="tN9eeVgs6B-u2x_idrSd-2" target="tN9eeVgs6B-u2x_idrSd-7">
          <mxGeometry width="50" height="50" relative="1" as="geometry">
            <mxPoint x="374" y="224" as="sourcePoint" />
            <mxPoint x="336" y="215" as="targetPoint" />
          </mxGeometry>
        </mxCell>
        <mxCell id="KgcUx6kxorHHYvOVh6-6-10" value="" style="endArrow=classic;html=1;rounded=0;strokeWidth=1;" edge="1" parent="1" source="tN9eeVgs6B-u2x_idrSd-2" target="tN9eeVgs6B-u2x_idrSd-8">
          <mxGeometry width="50" height="50" relative="1" as="geometry">
            <mxPoint x="384" y="234" as="sourcePoint" />
            <mxPoint x="346" y="225" as="targetPoint" />
          </mxGeometry>
        </mxCell>
        <mxCell id="KgcUx6kxorHHYvOVh6-6-11" value="" style="endArrow=classic;html=1;rounded=0;strokeWidth=1;" edge="1" parent="1" source="tN9eeVgs6B-u2x_idrSd-2" target="tN9eeVgs6B-u2x_idrSd-9">
          <mxGeometry width="50" height="50" relative="1" as="geometry">
            <mxPoint x="394" y="244" as="sourcePoint" />
            <mxPoint x="356" y="235" as="targetPoint" />
          </mxGeometry>
        </mxCell>
        <mxCell id="KgcUx6kxorHHYvOVh6-6-12" value="" style="endArrow=classic;html=1;rounded=0;strokeWidth=1;" edge="1" parent="1" source="tN9eeVgs6B-u2x_idrSd-2" target="tN9eeVgs6B-u2x_idrSd-78">
          <mxGeometry width="50" height="50" relative="1" as="geometry">
            <mxPoint x="404" y="254" as="sourcePoint" />
            <mxPoint x="366" y="245" as="targetPoint" />
          </mxGeometry>
        </mxCell>
        <mxCell id="KgcUx6kxorHHYvOVh6-6-13" value="" style="endArrow=classic;html=1;rounded=0;strokeWidth=1;" edge="1" parent="1" source="tN9eeVgs6B-u2x_idrSd-3" target="tN9eeVgs6B-u2x_idrSd-42">
          <mxGeometry width="50" height="50" relative="1" as="geometry">
            <mxPoint x="435" y="260" as="sourcePoint" />
            <mxPoint x="485" y="391" as="targetPoint" />
          </mxGeometry>
        </mxCell>
        <mxCell id="KgcUx6kxorHHYvOVh6-6-14" value="" style="endArrow=classic;html=1;rounded=0;strokeWidth=1;" edge="1" parent="1" source="tN9eeVgs6B-u2x_idrSd-3" target="tN9eeVgs6B-u2x_idrSd-38">
          <mxGeometry width="50" height="50" relative="1" as="geometry">
            <mxPoint x="445" y="270" as="sourcePoint" />
            <mxPoint x="495" y="401" as="targetPoint" />
          </mxGeometry>
        </mxCell>
        <mxCell id="KgcUx6kxorHHYvOVh6-6-15" value="" style="endArrow=classic;html=1;rounded=0;strokeWidth=1;" edge="1" parent="1" source="tN9eeVgs6B-u2x_idrSd-3" target="tN9eeVgs6B-u2x_idrSd-39">
          <mxGeometry width="50" height="50" relative="1" as="geometry">
            <mxPoint x="455" y="280" as="sourcePoint" />
            <mxPoint x="505" y="411" as="targetPoint" />
          </mxGeometry>
        </mxCell>
        <mxCell id="KgcUx6kxorHHYvOVh6-6-16" value="" style="endArrow=classic;html=1;rounded=0;strokeWidth=1;" edge="1" parent="1" source="tN9eeVgs6B-u2x_idrSd-3" target="tN9eeVgs6B-u2x_idrSd-40">
          <mxGeometry width="50" height="50" relative="1" as="geometry">
            <mxPoint x="465" y="290" as="sourcePoint" />
            <mxPoint x="515" y="421" as="targetPoint" />
          </mxGeometry>
        </mxCell>
        <mxCell id="KgcUx6kxorHHYvOVh6-6-17" value="" style="endArrow=classic;html=1;rounded=0;strokeWidth=1;" edge="1" parent="1" source="tN9eeVgs6B-u2x_idrSd-3" target="tN9eeVgs6B-u2x_idrSd-41">
          <mxGeometry width="50" height="50" relative="1" as="geometry">
            <mxPoint x="475" y="300" as="sourcePoint" />
            <mxPoint x="525" y="431" as="targetPoint" />
          </mxGeometry>
        </mxCell>
        <mxCell id="KgcUx6kxorHHYvOVh6-6-18" value="" style="endArrow=classic;html=1;rounded=0;strokeWidth=1;" edge="1" parent="1" source="KgcUx6kxorHHYvOVh6-6-1" target="tN9eeVgs6B-u2x_idrSd-45">
          <mxGeometry width="50" height="50" relative="1" as="geometry">
            <mxPoint x="485" y="310" as="sourcePoint" />
            <mxPoint x="535" y="441" as="targetPoint" />
          </mxGeometry>
        </mxCell>
        <mxCell id="KgcUx6kxorHHYvOVh6-6-19" value="" style="endArrow=classic;html=1;rounded=0;strokeWidth=1;" edge="1" parent="1" source="KgcUx6kxorHHYvOVh6-6-1" target="tN9eeVgs6B-u2x_idrSd-44">
          <mxGeometry width="50" height="50" relative="1" as="geometry">
            <mxPoint x="495" y="320" as="sourcePoint" />
            <mxPoint x="545" y="451" as="targetPoint" />
          </mxGeometry>
        </mxCell>
        <mxCell id="KgcUx6kxorHHYvOVh6-6-20" value="" style="endArrow=classic;html=1;rounded=0;strokeWidth=1;" edge="1" parent="1" source="tN9eeVgs6B-u2x_idrSd-45" target="tN9eeVgs6B-u2x_idrSd-46">
          <mxGeometry width="50" height="50" relative="1" as="geometry">
            <mxPoint x="505" y="330" as="sourcePoint" />
            <mxPoint x="555" y="461" as="targetPoint" />
          </mxGeometry>
        </mxCell>
        <mxCell id="KgcUx6kxorHHYvOVh6-6-22" value="" style="endArrow=none;html=1;rounded=0;strokeWidth=2;" edge="1" parent="1" source="KgcUx6kxorHHYvOVh6-6-2" target="tN9eeVgs6B-u2x_idrSd-2">
          <mxGeometry width="50" height="50" relative="1" as="geometry">
            <mxPoint x="382" y="508" as="sourcePoint" />
            <mxPoint x="419" y="260" as="targetPoint" />
          </mxGeometry>
        </mxCell>
        <mxCell id="KgcUx6kxorHHYvOVh6-6-36" value="&lt;font style=&quot;font-size: 20px;&quot;&gt;1&lt;/font&gt;" style="edgeLabel;html=1;align=left;verticalAlign=middle;resizable=0;points=[];" vertex="1" connectable="0" parent="KgcUx6kxorHHYvOVh6-6-22">
          <mxGeometry x="0.1672" y="7" relative="1" as="geometry">
            <mxPoint as="offset" />
          </mxGeometry>
        </mxCell>
        <mxCell id="KgcUx6kxorHHYvOVh6-6-23" value="" style="endArrow=none;html=1;rounded=0;strokeWidth=2;" edge="1" parent="1" source="KgcUx6kxorHHYvOVh6-6-2" target="tN9eeVgs6B-u2x_idrSd-62">
          <mxGeometry width="50" height="50" relative="1" as="geometry">
            <mxPoint x="392" y="518" as="sourcePoint" />
            <mxPoint x="429" y="270" as="targetPoint" />
          </mxGeometry>
        </mxCell>
        <mxCell id="KgcUx6kxorHHYvOVh6-6-37" value="&lt;font style=&quot;font-size: 20px;&quot;&gt;N&lt;/font&gt;" style="edgeLabel;html=1;align=left;verticalAlign=middle;resizable=0;points=[];" vertex="1" connectable="0" parent="KgcUx6kxorHHYvOVh6-6-23">
          <mxGeometry x="-0.1083" y="-3" relative="1" as="geometry">
            <mxPoint as="offset" />
          </mxGeometry>
        </mxCell>
        <mxCell id="KgcUx6kxorHHYvOVh6-6-24" value="" style="endArrow=classic;html=1;rounded=0;strokeWidth=1;" edge="1" parent="1" source="tN9eeVgs6B-u2x_idrSd-16" target="tN9eeVgs6B-u2x_idrSd-17">
          <mxGeometry width="50" height="50" relative="1" as="geometry">
            <mxPoint x="603" y="923" as="sourcePoint" />
            <mxPoint x="671" y="957" as="targetPoint" />
          </mxGeometry>
        </mxCell>
        <mxCell id="KgcUx6kxorHHYvOVh6-6-25" value="" style="endArrow=classic;html=1;rounded=0;strokeWidth=1;" edge="1" parent="1" source="tN9eeVgs6B-u2x_idrSd-62" target="tN9eeVgs6B-u2x_idrSd-67">
          <mxGeometry width="50" height="50" relative="1" as="geometry">
            <mxPoint x="390" y="825" as="sourcePoint" />
            <mxPoint x="474" y="804" as="targetPoint" />
          </mxGeometry>
        </mxCell>
        <mxCell id="KgcUx6kxorHHYvOVh6-6-26" value="" style="endArrow=classic;html=1;rounded=0;strokeWidth=1;" edge="1" parent="1" source="tN9eeVgs6B-u2x_idrSd-62" target="tN9eeVgs6B-u2x_idrSd-63">
          <mxGeometry width="50" height="50" relative="1" as="geometry">
            <mxPoint x="1131" y="807" as="sourcePoint" />
            <mxPoint x="1017" y="819" as="targetPoint" />
          </mxGeometry>
        </mxCell>
        <mxCell id="KgcUx6kxorHHYvOVh6-6-27" value="" style="endArrow=classic;html=1;rounded=0;strokeWidth=1;" edge="1" parent="1" source="tN9eeVgs6B-u2x_idrSd-62" target="tN9eeVgs6B-u2x_idrSd-64">
          <mxGeometry width="50" height="50" relative="1" as="geometry">
            <mxPoint x="1141" y="817" as="sourcePoint" />
            <mxPoint x="1027" y="829" as="targetPoint" />
          </mxGeometry>
        </mxCell>
        <mxCell id="KgcUx6kxorHHYvOVh6-6-28" value="" style="endArrow=classic;html=1;rounded=0;strokeWidth=1;" edge="1" parent="1" source="tN9eeVgs6B-u2x_idrSd-62" target="tN9eeVgs6B-u2x_idrSd-65">
          <mxGeometry width="50" height="50" relative="1" as="geometry">
            <mxPoint x="1151" y="827" as="sourcePoint" />
            <mxPoint x="1037" y="839" as="targetPoint" />
          </mxGeometry>
        </mxCell>
        <mxCell id="KgcUx6kxorHHYvOVh6-6-29" value="" style="endArrow=classic;html=1;rounded=0;strokeWidth=1;" edge="1" parent="1" source="tN9eeVgs6B-u2x_idrSd-62" target="tN9eeVgs6B-u2x_idrSd-66">
          <mxGeometry width="50" height="50" relative="1" as="geometry">
            <mxPoint x="1161" y="837" as="sourcePoint" />
            <mxPoint x="1047" y="849" as="targetPoint" />
          </mxGeometry>
        </mxCell>
        <mxCell id="KgcUx6kxorHHYvOVh6-6-30" value="" style="endArrow=classic;html=1;rounded=0;strokeWidth=1;" edge="1" parent="1" source="tN9eeVgs6B-u2x_idrSd-62" target="tN9eeVgs6B-u2x_idrSd-70">
          <mxGeometry width="50" height="50" relative="1" as="geometry">
            <mxPoint x="1171" y="847" as="sourcePoint" />
            <mxPoint x="1057" y="859" as="targetPoint" />
          </mxGeometry>
        </mxCell>
        <mxCell id="KgcUx6kxorHHYvOVh6-6-31" value="" style="endArrow=classic;html=1;rounded=0;strokeWidth=1;" edge="1" parent="1" source="tN9eeVgs6B-u2x_idrSd-62" target="tN9eeVgs6B-u2x_idrSd-68">
          <mxGeometry width="50" height="50" relative="1" as="geometry">
            <mxPoint x="1181" y="857" as="sourcePoint" />
            <mxPoint x="1067" y="869" as="targetPoint" />
          </mxGeometry>
        </mxCell>
        <mxCell id="KgcUx6kxorHHYvOVh6-6-32" value="" style="endArrow=classic;html=1;rounded=0;strokeWidth=1;" edge="1" parent="1" source="KgcUx6kxorHHYvOVh6-6-2" target="tN9eeVgs6B-u2x_idrSd-72">
          <mxGeometry width="50" height="50" relative="1" as="geometry">
            <mxPoint x="1191" y="867" as="sourcePoint" />
            <mxPoint x="1077" y="879" as="targetPoint" />
          </mxGeometry>
        </mxCell>
        <mxCell id="KgcUx6kxorHHYvOVh6-6-35" value="" style="endArrow=classic;html=1;rounded=0;strokeWidth=1;" edge="1" parent="1" source="tN9eeVgs6B-u2x_idrSd-70" target="tN9eeVgs6B-u2x_idrSd-71">
          <mxGeometry width="50" height="50" relative="1" as="geometry">
            <mxPoint x="1334" y="470" as="sourcePoint" />
            <mxPoint x="1402" y="612" as="targetPoint" />
          </mxGeometry>
        </mxCell>
        <mxCell id="KgcUx6kxorHHYvOVh6-6-38" value="" style="endArrow=classic;html=1;rounded=0;strokeWidth=1;" edge="1" parent="1" source="KgcUx6kxorHHYvOVh6-6-2" target="tN9eeVgs6B-u2x_idrSd-75">
          <mxGeometry width="50" height="50" relative="1" as="geometry">
            <mxPoint x="1260" y="443" as="sourcePoint" />
            <mxPoint x="1200" y="447" as="targetPoint" />
          </mxGeometry>
        </mxCell>
        <mxCell id="KgcUx6kxorHHYvOVh6-6-39" value="" style="endArrow=classic;html=1;rounded=0;strokeWidth=1;" edge="1" parent="1" source="KgcUx6kxorHHYvOVh6-6-2" target="tN9eeVgs6B-u2x_idrSd-73">
          <mxGeometry width="50" height="50" relative="1" as="geometry">
            <mxPoint x="1270" y="453" as="sourcePoint" />
            <mxPoint x="1210" y="457" as="targetPoint" />
          </mxGeometry>
        </mxCell>
        <mxCell id="KgcUx6kxorHHYvOVh6-6-40" value="&lt;font style=&quot;font-size: 16px;&quot;&gt;&lt;b&gt;Jogo&lt;/b&gt;&lt;/font&gt;" style="rounded=0;whiteSpace=wrap;html=1;" vertex="1" parent="1">
          <mxGeometry x="960" y="930" width="120" height="60" as="geometry" />
        </mxCell>
        <mxCell id="KgcUx6kxorHHYvOVh6-6-41" value="&lt;font style=&quot;font-size: 16px;&quot;&gt;Jogador (FK)&lt;/font&gt;" style="ellipse;whiteSpace=wrap;html=1;" vertex="1" parent="1">
          <mxGeometry x="790" y="950" width="120" height="80" as="geometry" />
        </mxCell>
        <mxCell id="KgcUx6kxorHHYvOVh6-6-42" value="&lt;font style=&quot;font-size: 16px;&quot;&gt;NPC (FK)&lt;/font&gt;" style="ellipse;whiteSpace=wrap;html=1;" vertex="1" parent="1">
          <mxGeometry x="870" y="1050" width="120" height="80" as="geometry" />
        </mxCell>
        <mxCell id="KgcUx6kxorHHYvOVh6-6-43" value="&lt;font style=&quot;font-size: 16px;&quot;&gt;Adversários (FK)&lt;/font&gt;" style="ellipse;whiteSpace=wrap;html=1;" vertex="1" parent="1">
          <mxGeometry x="1050" y="1050" width="120" height="80" as="geometry" />
        </mxCell>
        <mxCell id="KgcUx6kxorHHYvOVh6-6-44" value="&lt;font style=&quot;font-size: 16px;&quot;&gt;Configurações&lt;/font&gt;" style="ellipse;whiteSpace=wrap;html=1;" vertex="1" parent="1">
          <mxGeometry x="1140" y="950" width="120" height="80" as="geometry" />
        </mxCell>
        <mxCell id="KgcUx6kxorHHYvOVh6-6-46" value="" style="endArrow=classic;html=1;rounded=0;strokeWidth=1;" edge="1" parent="1" source="tN9eeVgs6B-u2x_idrSd-10" target="tN9eeVgs6B-u2x_idrSd-16">
          <mxGeometry width="50" height="50" relative="1" as="geometry">
            <mxPoint x="-399" y="556" as="sourcePoint" />
            <mxPoint x="-250" y="420" as="targetPoint" />
          </mxGeometry>
        </mxCell>
        <mxCell id="KgcUx6kxorHHYvOVh6-6-47" value="" style="endArrow=classic;html=1;rounded=0;strokeWidth=1;" edge="1" parent="1" source="tN9eeVgs6B-u2x_idrSd-13" target="tN9eeVgs6B-u2x_idrSd-16">
          <mxGeometry width="50" height="50" relative="1" as="geometry">
            <mxPoint x="-127" y="371" as="sourcePoint" />
            <mxPoint x="-303" y="519" as="targetPoint" />
          </mxGeometry>
        </mxCell>
        <mxCell id="KgcUx6kxorHHYvOVh6-6-48" value="" style="endArrow=classic;html=1;rounded=0;strokeWidth=1;" edge="1" parent="1" source="tN9eeVgs6B-u2x_idrSd-11" target="tN9eeVgs6B-u2x_idrSd-16">
          <mxGeometry width="50" height="50" relative="1" as="geometry">
            <mxPoint x="-117" y="381" as="sourcePoint" />
            <mxPoint x="-293" y="529" as="targetPoint" />
          </mxGeometry>
        </mxCell>
        <mxCell id="KgcUx6kxorHHYvOVh6-6-49" value="" style="endArrow=classic;html=1;rounded=0;strokeWidth=1;" edge="1" parent="1" source="tN9eeVgs6B-u2x_idrSd-15" target="tN9eeVgs6B-u2x_idrSd-16">
          <mxGeometry width="50" height="50" relative="1" as="geometry">
            <mxPoint x="-107" y="391" as="sourcePoint" />
            <mxPoint x="-283" y="539" as="targetPoint" />
          </mxGeometry>
        </mxCell>
        <mxCell id="KgcUx6kxorHHYvOVh6-6-50" value="" style="endArrow=classic;html=1;rounded=0;strokeWidth=1;" edge="1" parent="1" source="tN9eeVgs6B-u2x_idrSd-14" target="tN9eeVgs6B-u2x_idrSd-16">
          <mxGeometry width="50" height="50" relative="1" as="geometry">
            <mxPoint x="-97" y="401" as="sourcePoint" />
            <mxPoint x="-273" y="549" as="targetPoint" />
          </mxGeometry>
        </mxCell>
        <mxCell id="KgcUx6kxorHHYvOVh6-6-51" value="" style="endArrow=classic;html=1;rounded=0;strokeWidth=1;" edge="1" parent="1" source="tN9eeVgs6B-u2x_idrSd-12" target="tN9eeVgs6B-u2x_idrSd-16">
          <mxGeometry width="50" height="50" relative="1" as="geometry">
            <mxPoint x="-87" y="411" as="sourcePoint" />
            <mxPoint x="-263" y="559" as="targetPoint" />
          </mxGeometry>
        </mxCell>
        <mxCell id="KgcUx6kxorHHYvOVh6-6-52" value="" style="endArrow=classic;html=1;rounded=0;strokeWidth=1;" edge="1" parent="1" source="tN9eeVgs6B-u2x_idrSd-9" target="tN9eeVgs6B-u2x_idrSd-10">
          <mxGeometry width="50" height="50" relative="1" as="geometry">
            <mxPoint x="-77" y="421" as="sourcePoint" />
            <mxPoint x="-253" y="569" as="targetPoint" />
          </mxGeometry>
        </mxCell>
        <mxCell id="KgcUx6kxorHHYvOVh6-6-53" value="" style="endArrow=classic;html=1;rounded=0;strokeWidth=1;" edge="1" parent="1" source="tN9eeVgs6B-u2x_idrSd-9" target="tN9eeVgs6B-u2x_idrSd-13">
          <mxGeometry width="50" height="50" relative="1" as="geometry">
            <mxPoint x="62" y="416" as="sourcePoint" />
            <mxPoint x="-42" y="364" as="targetPoint" />
          </mxGeometry>
        </mxCell>
        <mxCell id="KgcUx6kxorHHYvOVh6-6-54" value="" style="endArrow=classic;html=1;rounded=0;strokeWidth=1;" edge="1" parent="1" source="tN9eeVgs6B-u2x_idrSd-9" target="tN9eeVgs6B-u2x_idrSd-11">
          <mxGeometry width="50" height="50" relative="1" as="geometry">
            <mxPoint x="72" y="426" as="sourcePoint" />
            <mxPoint x="-32" y="374" as="targetPoint" />
          </mxGeometry>
        </mxCell>
        <mxCell id="KgcUx6kxorHHYvOVh6-6-55" value="" style="endArrow=classic;html=1;rounded=0;strokeWidth=1;" edge="1" parent="1" source="tN9eeVgs6B-u2x_idrSd-9" target="tN9eeVgs6B-u2x_idrSd-15">
          <mxGeometry width="50" height="50" relative="1" as="geometry">
            <mxPoint x="82" y="436" as="sourcePoint" />
            <mxPoint x="-22" y="384" as="targetPoint" />
          </mxGeometry>
        </mxCell>
        <mxCell id="KgcUx6kxorHHYvOVh6-6-56" value="" style="endArrow=classic;html=1;rounded=0;strokeWidth=1;" edge="1" parent="1" source="tN9eeVgs6B-u2x_idrSd-9" target="tN9eeVgs6B-u2x_idrSd-14">
          <mxGeometry width="50" height="50" relative="1" as="geometry">
            <mxPoint x="92" y="446" as="sourcePoint" />
            <mxPoint x="-12" y="394" as="targetPoint" />
          </mxGeometry>
        </mxCell>
        <mxCell id="KgcUx6kxorHHYvOVh6-6-57" value="" style="endArrow=classic;html=1;rounded=0;strokeWidth=1;" edge="1" parent="1" source="tN9eeVgs6B-u2x_idrSd-9" target="tN9eeVgs6B-u2x_idrSd-12">
          <mxGeometry width="50" height="50" relative="1" as="geometry">
            <mxPoint x="102" y="456" as="sourcePoint" />
            <mxPoint x="-2" y="404" as="targetPoint" />
          </mxGeometry>
        </mxCell>
        <mxCell id="KgcUx6kxorHHYvOVh6-6-60" value="Pertence" style="rhombus;whiteSpace=wrap;html=1;strokeWidth=2;" vertex="1" parent="1">
          <mxGeometry x="840" y="600" width="120" height="120" as="geometry" />
        </mxCell>
        <mxCell id="KgcUx6kxorHHYvOVh6-6-63" value="" style="endArrow=none;html=1;rounded=0;strokeWidth=2;" edge="1" parent="1" source="KgcUx6kxorHHYvOVh6-6-60" target="tN9eeVgs6B-u2x_idrSd-2">
          <mxGeometry width="50" height="50" relative="1" as="geometry">
            <mxPoint x="872" y="132" as="sourcePoint" />
            <mxPoint x="494" y="225" as="targetPoint" />
          </mxGeometry>
        </mxCell>
        <mxCell id="KgcUx6kxorHHYvOVh6-6-64" value="&lt;font style=&quot;font-size: 20px;&quot;&gt;1&lt;/font&gt;" style="edgeLabel;html=1;align=left;verticalAlign=middle;resizable=0;points=[];" vertex="1" connectable="0" parent="KgcUx6kxorHHYvOVh6-6-63">
          <mxGeometry x="0.1672" y="7" relative="1" as="geometry">
            <mxPoint as="offset" />
          </mxGeometry>
        </mxCell>
        <mxCell id="KgcUx6kxorHHYvOVh6-6-65" value="" style="endArrow=none;html=1;rounded=0;strokeWidth=2;" edge="1" parent="1" source="tN9eeVgs6B-u2x_idrSd-62" target="KgcUx6kxorHHYvOVh6-6-60">
          <mxGeometry width="50" height="50" relative="1" as="geometry">
            <mxPoint x="1268" y="498.5" as="sourcePoint" />
            <mxPoint x="890" y="591.5" as="targetPoint" />
          </mxGeometry>
        </mxCell>
        <mxCell id="KgcUx6kxorHHYvOVh6-6-66" value="&lt;font style=&quot;font-size: 20px;&quot;&gt;N&lt;/font&gt;" style="edgeLabel;html=1;align=left;verticalAlign=middle;resizable=0;points=[];" vertex="1" connectable="0" parent="KgcUx6kxorHHYvOVh6-6-65">
          <mxGeometry x="0.1672" y="7" relative="1" as="geometry">
            <mxPoint as="offset" />
          </mxGeometry>
        </mxCell>
        <mxCell id="KgcUx6kxorHHYvOVh6-6-67" value="" style="endArrow=none;html=1;rounded=0;strokeWidth=2;" edge="1" parent="1" source="KgcUx6kxorHHYvOVh6-6-60" target="tN9eeVgs6B-u2x_idrSd-3">
          <mxGeometry width="50" height="50" relative="1" as="geometry">
            <mxPoint x="892" y="152" as="sourcePoint" />
            <mxPoint x="514" y="245" as="targetPoint" />
          </mxGeometry>
        </mxCell>
        <mxCell id="KgcUx6kxorHHYvOVh6-6-68" value="&lt;font style=&quot;font-size: 20px;&quot;&gt;M&lt;/font&gt;" style="edgeLabel;html=1;align=left;verticalAlign=middle;resizable=0;points=[];" vertex="1" connectable="0" parent="KgcUx6kxorHHYvOVh6-6-67">
          <mxGeometry x="0.1672" y="7" relative="1" as="geometry">
            <mxPoint as="offset" />
          </mxGeometry>
        </mxCell>
        <mxCell id="KgcUx6kxorHHYvOVh6-6-69" value="" style="endArrow=none;html=1;rounded=0;strokeWidth=2;" edge="1" parent="1" source="KgcUx6kxorHHYvOVh6-6-40" target="KgcUx6kxorHHYvOVh6-6-60">
          <mxGeometry width="50" height="50" relative="1" as="geometry">
            <mxPoint x="902" y="162" as="sourcePoint" />
            <mxPoint x="524" y="255" as="targetPoint" />
          </mxGeometry>
        </mxCell>
        <mxCell id="KgcUx6kxorHHYvOVh6-6-70" value="&lt;font style=&quot;font-size: 20px;&quot;&gt;1&lt;/font&gt;" style="edgeLabel;html=1;align=left;verticalAlign=middle;resizable=0;points=[];" vertex="1" connectable="0" parent="KgcUx6kxorHHYvOVh6-6-69">
          <mxGeometry x="0.1672" y="7" relative="1" as="geometry">
            <mxPoint as="offset" />
          </mxGeometry>
        </mxCell>
        <mxCell id="KgcUx6kxorHHYvOVh6-6-71" value="" style="endArrow=classic;html=1;rounded=0;strokeWidth=1;" edge="1" parent="1" source="KgcUx6kxorHHYvOVh6-6-40" target="KgcUx6kxorHHYvOVh6-6-41">
          <mxGeometry width="50" height="50" relative="1" as="geometry">
            <mxPoint x="630" y="844" as="sourcePoint" />
            <mxPoint x="733" y="950" as="targetPoint" />
          </mxGeometry>
        </mxCell>
        <mxCell id="KgcUx6kxorHHYvOVh6-6-72" value="" style="endArrow=classic;html=1;rounded=0;strokeWidth=1;" edge="1" parent="1" source="KgcUx6kxorHHYvOVh6-6-40" target="KgcUx6kxorHHYvOVh6-6-42">
          <mxGeometry width="50" height="50" relative="1" as="geometry">
            <mxPoint x="369" y="880" as="sourcePoint" />
            <mxPoint x="472" y="986" as="targetPoint" />
          </mxGeometry>
        </mxCell>
        <mxCell id="KgcUx6kxorHHYvOVh6-6-73" value="" style="endArrow=classic;html=1;rounded=0;strokeWidth=1;" edge="1" parent="1" source="KgcUx6kxorHHYvOVh6-6-40" target="KgcUx6kxorHHYvOVh6-6-43">
          <mxGeometry width="50" height="50" relative="1" as="geometry">
            <mxPoint x="379" y="890" as="sourcePoint" />
            <mxPoint x="482" y="996" as="targetPoint" />
          </mxGeometry>
        </mxCell>
        <mxCell id="KgcUx6kxorHHYvOVh6-6-75" value="" style="endArrow=classic;html=1;rounded=0;strokeWidth=1;" edge="1" parent="1" source="KgcUx6kxorHHYvOVh6-6-40" target="KgcUx6kxorHHYvOVh6-6-44">
          <mxGeometry width="50" height="50" relative="1" as="geometry">
            <mxPoint x="399" y="910" as="sourcePoint" />
            <mxPoint x="502" y="1016" as="targetPoint" />
          </mxGeometry>
        </mxCell>
      </root>
    </mxGraphModel>
  </diagram>
</mxfile>
